<?xml version="1.0" encoding="UTF-8" standalone="no"?>
<!DOCTYPE svg PUBLIC "-//W3C//DTD SVG 1.1//EN" "http://www.w3.org/Graphics/SVG/1.1/DTD/svg11.dtd">
<svg width="100%" height="100%" viewBox="0 0 220 70" version="1.1" xmlns="http://www.w3.org/2000/svg" xmlns:xlink="http://www.w3.org/1999/xlink" xml:space="preserve" xmlns:serif="http://www.serif.com/" style="fill-rule:evenodd;clip-rule:evenodd;stroke-linejoin:round;stroke-miterlimit:1.41421;">
    <g id="Layer-1" serif:id="Layer 1" transform="matrix(1,0,0,0.719141,-273.809,-381.707)">
        <g transform="matrix(1.05906,0,0,1.75213,277.927,539.893)">
            <path d="M203.844,0.822C203.844,-1.096 201.991,-2.654 199.708,-2.654L0.247,-2.654C-2.036,-2.654 -3.889,-1.096 -3.889,0.822L-3.889,44.332C-3.889,46.25 -2.036,47.808 0.247,47.808L199.708,47.808C201.991,47.808 203.844,46.25 203.844,44.332L203.844,0.822Z" style="fill:rgb(227,240,243);"/>
        </g>
        <g transform="matrix(3.97389,0,0,6.37444,-80.8101,147.182)">
            <path d="M95.23,62.533L95.182,71.437C95.182,71.597 95.122,71.677 95.002,71.677C94.834,71.677 94.746,71.605 94.738,71.461C94.602,69.485 94.534,68.305 94.534,67.921C94.534,67.265 94.562,66.385 94.618,65.281C94.674,64.177 94.702,63.401 94.702,62.953C94.702,62.721 94.714,62.565 94.738,62.485C94.77,62.373 94.842,62.317 94.954,62.317C95.058,62.317 95.15,62.389 95.23,62.533ZM99.874,63.025C99.874,63.161 99.798,63.257 99.646,63.313C99.438,63.377 99.234,63.437 99.034,63.493C98.674,63.605 98.426,63.837 98.29,64.189C98.162,64.509 98.098,65.009 98.098,65.689C98.098,65.913 98.136,66.267 98.212,66.751C98.288,67.235 98.326,67.601 98.326,67.849C98.326,68.209 98.27,68.669 98.158,69.229C98.03,69.869 97.866,70.421 97.666,70.885C97.33,71.653 96.97,72.257 96.586,72.697C96.242,73.081 95.938,73.273 95.674,73.273C95.498,73.273 95.342,73.183 95.206,73.003C95.07,72.823 94.97,72.733 94.906,72.733C94.818,72.733 94.722,72.807 94.618,72.955C94.514,73.103 94.378,73.177 94.21,73.177C93.578,73.177 93.014,72.709 92.518,71.773C92.214,71.197 91.95,70.349 91.726,69.229C91.638,68.789 91.594,68.425 91.594,68.137C91.594,67.473 91.61,66.797 91.642,66.109C91.674,65.421 91.69,65.061 91.69,65.029C91.69,64.381 91.518,63.933 91.174,63.685C90.99,63.557 90.81,63.429 90.634,63.301C90.49,63.197 90.418,63.113 90.418,63.049C90.418,62.985 90.474,62.953 90.586,62.953C90.882,62.953 91.208,63.085 91.564,63.349C91.92,63.613 92.182,63.917 92.35,64.261C92.59,64.757 92.746,65.545 92.818,66.625C92.866,67.809 92.914,68.997 92.962,70.189C93.01,70.981 93.126,71.585 93.31,72.001C93.478,72.361 93.682,72.541 93.922,72.541C94.01,72.541 94.054,72.449 94.054,72.265C94.054,72.305 93.994,72.005 93.874,71.365C93.73,70.653 93.626,69.861 93.562,68.989L93.166,63.433C93.166,62.865 93.298,62.581 93.562,62.581C93.802,62.581 93.95,62.861 94.006,63.421C94.022,63.565 94.03,63.921 94.03,64.489L94.03,65.557C94.03,67.741 94.106,69.333 94.258,70.333C94.418,71.381 94.678,71.905 95.038,71.905C95.046,71.905 95.058,71.905 95.074,71.905C95.09,71.897 95.102,71.893 95.11,71.893C95.222,71.869 95.334,71.649 95.446,71.233C95.566,70.769 95.626,70.245 95.626,69.661L95.626,67.117C95.626,66.685 95.67,65.953 95.758,64.921C95.83,64.073 95.894,63.517 95.95,63.253C96.014,62.893 96.114,62.713 96.25,62.713C96.37,62.713 96.49,62.789 96.61,62.941C96.738,63.117 96.802,63.325 96.802,63.565C96.802,63.581 96.742,64.073 96.622,65.041C96.478,66.225 96.354,67.453 96.25,68.725C96.202,69.325 96.122,70.049 96.01,70.897C95.914,71.577 95.866,72.013 95.866,72.205C95.866,72.325 95.926,72.385 96.046,72.385C96.222,72.385 96.394,72.085 96.562,71.485C96.754,70.813 96.85,70.041 96.85,69.169L96.85,67.261C96.85,66.581 96.978,65.897 97.234,65.209C97.474,64.545 97.786,64.005 98.17,63.589C98.618,63.101 99.126,62.857 99.694,62.857C99.814,62.857 99.874,62.913 99.874,63.025Z" style="fill:rgb(92,176,113);fill-rule:nonzero;stroke:black;stroke-width:0.23px;"/>
            <path d="M118.402,68.353C118.402,68.577 118.31,68.763 118.126,68.911C117.942,69.059 117.71,69.133 117.43,69.133C117.302,69.133 117.078,69.085 116.758,68.989C116.438,68.893 116.206,68.845 116.062,68.845C115.486,68.845 115.014,68.901 114.646,69.013C114.206,69.141 113.76,69.383 113.308,69.739C112.856,70.095 112.282,70.761 111.586,71.737C111.522,71.825 111.466,72.009 111.418,72.289C111.37,72.593 111.306,72.825 111.226,72.985C111.074,73.289 110.826,73.441 110.482,73.441C110.394,73.441 110.294,73.429 110.182,73.405C110.078,73.149 110.026,72.941 110.026,72.781C110.026,72.669 110.054,72.447 110.11,72.115C110.166,71.783 110.194,71.505 110.194,71.281C110.194,71.161 110.158,70.755 110.086,70.063C110.014,69.371 109.978,68.741 109.978,68.173C109.978,67.413 110.078,66.717 110.278,66.085C110.454,65.509 110.686,65.081 110.974,64.801L111.226,64.801C111.57,65.169 111.742,65.649 111.742,66.241C111.742,66.273 111.742,66.325 111.742,66.397C111.734,66.461 111.73,66.513 111.73,66.553C111.73,66.705 111.75,66.953 111.79,67.297C112.054,67.097 112.274,66.745 112.45,66.241C112.538,65.985 112.63,65.597 112.726,65.077C112.822,64.589 112.914,64.233 113.002,64.009C113.306,63.217 113.766,62.821 114.382,62.821C114.598,62.821 114.766,62.901 114.886,63.061C115.238,63.517 115.414,64.049 115.414,64.657C115.414,65.041 115.018,65.965 114.226,67.429C114.266,67.461 114.314,67.477 114.37,67.477C114.402,67.477 114.674,67.369 115.186,67.153C115.698,66.937 116.194,66.829 116.674,66.829C117.154,66.829 117.562,66.983 117.898,67.291C118.234,67.599 118.402,67.953 118.402,68.353ZM109.498,68.269C109.498,68.477 109.452,68.931 109.36,69.631C109.268,70.331 109.222,70.933 109.222,71.437C109.222,71.581 109.234,71.777 109.258,72.025C109.282,72.273 109.294,72.453 109.294,72.565C109.294,73.157 109.142,73.453 108.838,73.453C108.774,73.453 108.706,73.389 108.634,73.261C108.442,72.917 108.246,72.577 108.046,72.241C107.71,71.713 107.318,71.213 106.87,70.741C105.718,69.533 104.402,68.929 102.922,68.929C102.562,68.929 102.166,68.991 101.734,69.115C101.302,69.239 101.07,69.301 101.038,69.301C100.958,69.301 100.886,69.237 100.822,69.109C100.758,68.981 100.726,68.821 100.726,68.629C100.726,68.189 100.926,67.825 101.326,67.537C101.726,67.249 102.254,67.105 102.91,67.105C103.31,67.105 103.604,67.149 103.792,67.237C103.98,67.325 104.166,67.413 104.35,67.501C104.646,67.645 104.938,67.749 105.226,67.813L105.67,67.777C104.75,66.713 104.29,65.673 104.29,64.657C104.29,64.153 104.37,63.737 104.53,63.409C104.682,63.105 104.87,62.953 105.094,62.953C105.774,62.953 106.354,63.753 106.834,65.353C106.898,65.633 106.968,65.915 107.044,66.199C107.12,66.483 107.258,66.693 107.458,66.829C107.53,66.661 107.678,66.189 107.902,65.413C108.014,65.021 108.17,64.825 108.37,64.825C108.666,64.825 108.922,65.137 109.138,65.761C109.378,66.425 109.498,67.261 109.498,68.269Z" style="fill:rgb(92,176,113);fill-rule:nonzero;stroke:black;stroke-width:0.23px;"/>
            <path d="M133.258,69.241C133.258,69.449 133.19,69.553 133.054,69.553C133.03,69.553 132.914,69.469 132.706,69.301C132.426,69.085 132.154,68.897 131.89,68.737C131.506,68.513 131.206,68.401 130.99,68.401C130.774,68.401 130.666,68.649 130.666,69.145C130.666,69.249 130.71,69.413 130.798,69.637C130.742,69.709 130.678,69.745 130.606,69.745C130.51,69.745 130.354,69.661 130.138,69.493C129.89,69.293 129.64,69.033 129.388,68.713C129.136,68.393 129.01,68.149 129.01,67.981C129.018,67.933 129.022,67.913 129.022,67.921C129.198,67.793 129.33,67.621 129.418,67.405C129.45,67.333 129.514,67.125 129.61,66.781C129.674,66.565 129.75,66.441 129.838,66.409C130.126,66.313 130.462,66.265 130.846,66.265C131.15,66.265 131.302,66.417 131.302,66.721C131.302,66.921 131.246,67.065 131.134,67.153C130.958,67.273 130.786,67.393 130.618,67.513L130.57,67.621C132.362,67.925 133.258,68.465 133.258,69.241ZM129.382,64.429C129.382,64.477 129.218,64.647 128.89,64.939C128.562,65.231 128.376,65.467 128.332,65.647C128.288,65.827 128.25,66.009 128.218,66.193C128.146,66.425 128.006,66.541 127.798,66.541C127.582,66.541 127.314,66.389 126.994,66.085C126.674,65.781 126.418,65.629 126.226,65.629C126.17,65.629 126.028,65.751 125.8,65.995C125.572,66.239 125.41,66.361 125.314,66.361C125.162,66.361 124.934,66.057 124.63,65.449C124.542,65.265 124.346,65.093 124.042,64.933C123.794,64.797 123.67,64.657 123.67,64.513C123.67,64.313 123.814,64.213 124.102,64.213C124.334,64.213 124.608,64.335 124.924,64.579C125.24,64.823 125.422,64.945 125.47,64.945C125.558,64.945 125.662,64.805 125.782,64.525C125.854,64.293 125.93,64.061 126.01,63.829C126.09,63.629 126.246,63.529 126.478,63.529C126.654,63.529 126.814,63.625 126.958,63.817C127.054,63.945 127.214,64.233 127.438,64.681L127.534,64.741C127.766,64.621 127.998,64.505 128.23,64.393C128.494,64.273 128.75,64.213 128.998,64.213C129.254,64.213 129.382,64.285 129.382,64.429ZM127.966,68.353C127.966,68.457 127.936,68.555 127.876,68.647C127.816,68.739 127.75,68.785 127.678,68.785L127.666,68.785C127.442,68.609 127.218,68.437 126.994,68.269C126.73,68.093 126.466,68.005 126.202,68.005C126.002,68.005 125.808,68.103 125.62,68.299C125.432,68.495 125.298,68.593 125.218,68.593C125.154,68.593 125.092,68.553 125.032,68.473C124.972,68.393 124.942,68.313 124.942,68.233C124.942,68.001 125.09,67.739 125.386,67.447C125.682,67.155 125.95,67.009 126.19,67.009C126.622,67.009 127.026,67.147 127.402,67.423C127.778,67.699 127.966,68.009 127.966,68.353ZM128.734,71.425C128.734,71.681 128.65,71.809 128.482,71.809C128.282,71.809 128.154,71.721 128.098,71.545C128.034,71.329 127.97,71.193 127.906,71.137C127.81,71.033 127.65,70.981 127.426,70.981C127.234,70.981 127.094,71.041 127.006,71.161C126.982,71.193 126.926,71.333 126.838,71.581C126.694,71.973 126.414,72.169 125.998,72.169C125.75,72.169 125.586,72.057 125.506,71.833C125.474,71.673 125.436,71.511 125.392,71.347C125.348,71.183 125.242,71.101 125.074,71.101C124.834,71.101 124.634,71.255 124.474,71.563C124.314,71.871 124.15,72.025 123.982,72.025C123.974,72.025 123.898,72.009 123.754,71.977L123.754,71.641C123.754,71.089 123.906,70.619 124.21,70.231C124.514,69.843 124.882,69.649 125.314,69.649C125.442,69.649 125.746,69.789 126.226,70.069C126.402,69.973 126.576,69.879 126.748,69.787C126.92,69.695 127.066,69.649 127.186,69.649C127.274,69.649 127.434,69.701 127.666,69.805C127.93,69.925 128.114,70.045 128.218,70.165C128.362,70.325 128.486,70.545 128.59,70.825C128.686,71.073 128.734,71.273 128.734,71.425ZM124.402,67.669C124.402,67.933 124.334,68.129 124.198,68.257C124.134,68.329 124.006,68.401 123.814,68.473C123.206,68.705 122.814,68.897 122.638,69.049C122.526,69.145 122.418,69.245 122.314,69.349C122.17,69.453 122.006,69.505 121.822,69.505C121.646,69.505 121.558,69.425 121.558,69.265C121.558,69.161 121.61,68.971 121.714,68.695C121.818,68.419 121.87,68.245 121.87,68.173C121.87,68.125 121.838,68.101 121.774,68.101C121.766,68.101 121.41,68.289 120.706,68.665C120.314,68.873 120.078,68.977 119.998,68.977C119.974,68.977 119.954,68.973 119.938,68.965C119.746,68.949 119.65,68.857 119.65,68.689C119.65,68.385 119.906,68.137 120.418,67.945C120.658,67.873 120.902,67.801 121.15,67.729C121.478,67.625 121.766,67.489 122.014,67.321L122.074,67.261L122.014,67.177C121.686,66.945 121.522,66.789 121.522,66.709C121.522,66.445 121.81,66.313 122.386,66.313C122.978,66.313 123.462,66.443 123.838,66.703C124.214,66.963 124.402,67.285 124.402,67.669Z" style="fill:rgb(92,176,113);fill-rule:nonzero;stroke:black;stroke-width:0.23px;"/>
            <path d="M138.886,62.533L138.838,71.437C138.838,71.597 138.778,71.677 138.658,71.677C138.49,71.677 138.402,71.605 138.394,71.461C138.258,69.485 138.19,68.305 138.19,67.921C138.19,67.265 138.218,66.385 138.274,65.281C138.33,64.177 138.358,63.401 138.358,62.953C138.358,62.721 138.37,62.565 138.394,62.485C138.426,62.373 138.498,62.317 138.61,62.317C138.714,62.317 138.806,62.389 138.886,62.533ZM143.53,63.025C143.53,63.161 143.454,63.257 143.302,63.313C143.094,63.377 142.89,63.437 142.69,63.493C142.33,63.605 142.082,63.837 141.946,64.189C141.818,64.509 141.754,65.009 141.754,65.689C141.754,65.913 141.792,66.267 141.868,66.751C141.944,67.235 141.982,67.601 141.982,67.849C141.982,68.209 141.926,68.669 141.814,69.229C141.686,69.869 141.522,70.421 141.322,70.885C140.986,71.653 140.626,72.257 140.242,72.697C139.898,73.081 139.594,73.273 139.33,73.273C139.154,73.273 138.998,73.183 138.862,73.003C138.726,72.823 138.626,72.733 138.562,72.733C138.474,72.733 138.378,72.807 138.274,72.955C138.17,73.103 138.034,73.177 137.866,73.177C137.234,73.177 136.67,72.709 136.174,71.773C135.87,71.197 135.606,70.349 135.382,69.229C135.294,68.789 135.25,68.425 135.25,68.137C135.25,67.473 135.266,66.797 135.298,66.109C135.33,65.421 135.346,65.061 135.346,65.029C135.346,64.381 135.174,63.933 134.83,63.685C134.646,63.557 134.466,63.429 134.29,63.301C134.146,63.197 134.074,63.113 134.074,63.049C134.074,62.985 134.13,62.953 134.242,62.953C134.538,62.953 134.864,63.085 135.22,63.349C135.576,63.613 135.838,63.917 136.006,64.261C136.246,64.757 136.402,65.545 136.474,66.625C136.522,67.809 136.57,68.997 136.618,70.189C136.666,70.981 136.782,71.585 136.966,72.001C137.134,72.361 137.338,72.541 137.578,72.541C137.666,72.541 137.71,72.449 137.71,72.265C137.71,72.305 137.65,72.005 137.53,71.365C137.386,70.653 137.282,69.861 137.218,68.989L136.822,63.433C136.822,62.865 136.954,62.581 137.218,62.581C137.458,62.581 137.606,62.861 137.662,63.421C137.678,63.565 137.686,63.921 137.686,64.489L137.686,65.557C137.686,67.741 137.762,69.333 137.914,70.333C138.074,71.381 138.334,71.905 138.694,71.905C138.702,71.905 138.714,71.905 138.73,71.905C138.746,71.897 138.758,71.893 138.766,71.893C138.878,71.869 138.99,71.649 139.102,71.233C139.222,70.769 139.282,70.245 139.282,69.661L139.282,67.117C139.282,66.685 139.326,65.953 139.414,64.921C139.486,64.073 139.55,63.517 139.606,63.253C139.67,62.893 139.77,62.713 139.906,62.713C140.026,62.713 140.146,62.789 140.266,62.941C140.394,63.117 140.458,63.325 140.458,63.565C140.458,63.581 140.398,64.073 140.278,65.041C140.134,66.225 140.01,67.453 139.906,68.725C139.858,69.325 139.778,70.049 139.666,70.897C139.57,71.577 139.522,72.013 139.522,72.205C139.522,72.325 139.582,72.385 139.702,72.385C139.878,72.385 140.05,72.085 140.218,71.485C140.41,70.813 140.506,70.041 140.506,69.169L140.506,67.261C140.506,66.581 140.634,65.897 140.89,65.209C141.13,64.545 141.442,64.005 141.826,63.589C142.274,63.101 142.782,62.857 143.35,62.857C143.47,62.857 143.53,62.913 143.53,63.025Z" style="fill:rgb(92,176,113);fill-rule:nonzero;stroke:black;stroke-width:0.23px;"/>
        </g>
    </g>
</svg>
