<?xml version="1.0" encoding="UTF-8" standalone="no"?>
<!DOCTYPE svg PUBLIC "-//W3C//DTD SVG 1.1//EN" "http://www.w3.org/Graphics/SVG/1.1/DTD/svg11.dtd">
<svg width="100%" height="100%" viewBox="0 0 530 260" version="1.1" xmlns="http://www.w3.org/2000/svg" xmlns:xlink="http://www.w3.org/1999/xlink" xml:space="preserve" xmlns:serif="http://www.serif.com/" style="fill-rule:evenodd;clip-rule:evenodd;stroke-linejoin:round;stroke-miterlimit:1.41421;">
    <g id="Calque-1" serif:id="Calque 1" transform="matrix(1,0,0,1,-132.83,101.584)">
        <g id="path3684" transform="matrix(1,0,0,1,132.83,-27.1322)">
            <path d="M210.781,7.906C210.144,7.906 209.489,8.24 209.156,8.781L205.875,14.219C205.355,14.259 204.767,14.161 204.25,14.219L200.094,9.688C199.66,9.223 198.905,9.033 198.281,9.156C197.655,9.281 197.254,9.652 197.031,10.25L194.656,16.219C194.148,16.365 193.721,16.404 193.219,16.563L188.156,12.969C187.64,12.595 186.932,12.536 186.344,12.781C185.757,13.024 185.352,13.592 185.25,14.219L184.188,20.375C183.721,20.617 183.367,20.84 182.906,21.094L177.125,18.563C176.545,18.297 175.84,18.395 175.313,18.75C174.782,19.103 174.569,19.552 174.594,20.188L174.781,26.531C174.375,26.856 173.898,27.258 173.5,27.594L167.531,26.156C166.91,26.012 166.168,26.082 165.719,26.531C165.267,26.982 165.041,27.723 165.188,28.344L166.625,34.469C166.291,34.865 166.043,35.156 165.719,35.563L159.406,35.375C158.773,35.358 158.135,35.752 157.781,36.281C157.427,36.809 157.517,37.325 157.781,37.906L160.313,43.719C160.06,44.177 159.804,44.687 159.563,45.156L153.438,46.063C152.809,46.164 152.213,46.568 151.969,47.156C151.726,47.746 151.787,48.452 152.156,48.969L155.781,54.031C155.622,54.533 155.552,55.148 155.406,55.656L149.438,57.813C148.842,58.035 148.499,58.468 148.375,59.094C148.251,59.719 148.441,60.471 148.906,60.906L153.438,65.063C153.38,65.579 153.293,66.168 153.25,66.688L148,69.938C147.459,70.272 147.094,70.924 147.094,71.563C147.094,72.201 147.459,72.854 148,73.188L153.25,76.438C153.296,76.958 153.38,77.39 153.438,77.906L148.906,82.25C148.441,82.684 148.251,83.408 148.375,84.031C148.499,84.657 148.842,85.089 149.438,85.313L155.406,87.469C155.552,87.977 155.622,88.623 155.781,89.125L152.156,94.188C151.784,94.706 151.724,95.413 151.969,96C152.213,96.59 152.809,96.962 153.438,97.063L159.563,97.969C159.804,98.438 160.057,98.977 160.313,99.438L157.781,105.031C157.516,105.611 157.427,106.314 157.781,106.844C158.136,107.375 158.773,107.776 159.406,107.75L165.719,107.563C166.046,107.971 166.29,108.259 166.625,108.656L165.188,114.813C165.042,115.432 165.27,116.143 165.719,116.594C166.167,117.047 166.91,117.115 167.531,116.969L173.5,115.531C173.898,115.869 174.375,116.27 174.781,116.594L174.594,122.938C174.569,123.573 174.782,124.02 175.313,124.375C175.84,124.729 176.545,124.828 177.125,124.563L182.906,122.031C183.366,122.287 183.719,122.508 184.188,122.75L185.25,128.906C185.352,129.536 185.756,130.102 186.344,130.344C186.931,130.588 187.64,130.559 188.156,130.188L193.219,126.375C193.721,126.534 194.148,126.76 194.656,126.906L197.031,132.719C197.254,133.314 197.655,133.847 198.281,133.969C198.906,134.095 199.66,133.904 200.094,133.438L204.25,128.719C204.766,128.778 205.355,128.86 205.875,128.906L209.156,134.344C209.489,134.882 210.144,135.25 210.781,135.25C211.418,135.25 211.884,134.884 212.219,134.344L215.656,128.906C216.177,128.86 216.577,128.778 217.094,128.719L221.438,133.438C221.872,133.904 222.439,134.095 223.063,133.969C223.689,133.846 224.309,133.315 224.531,132.719L226.688,126.906C227.196,126.76 227.623,126.534 228.125,126.375L233.188,130.188C233.704,130.558 234.413,130.588 235,130.344C235.588,130.102 235.992,129.535 236.094,128.906L237.188,122.75C237.654,122.508 238.164,122.283 238.625,122.031L244.25,124.563C244.83,124.828 245.502,124.729 246.031,124.375C246.561,124.02 246.961,123.574 246.938,122.938L246.594,116.594C247,116.269 247.447,115.869 247.844,115.531L254,116.969C254.621,117.115 255.176,117.048 255.625,116.594C256.077,116.143 256.334,115.432 256.188,114.813L254.719,108.656C255.055,108.259 255.489,107.971 255.813,107.563L261.969,107.75C262.602,107.773 263.24,107.375 263.594,106.844C263.948,106.314 264.048,105.611 263.781,105.031L261.25,99.438C261.504,98.977 261.728,98.438 261.969,97.969L268.125,97.063C268.755,96.962 269.319,96.589 269.563,96C269.805,95.413 269.56,94.705 269.188,94.188L265.594,89.125C265.752,88.623 265.979,87.977 266.125,87.469L271.906,85.313C272.503,85.089 273.066,84.657 273.188,84.031C273.314,83.406 273.092,82.684 272.625,82.25L267.938,77.906C267.995,77.389 268.081,76.956 268.125,76.438L273.531,73.188C274.072,72.855 274.25,72.199 274.25,71.563C274.25,70.926 274.073,70.272 273.531,69.938L268.125,66.688C268.079,66.167 267.994,65.579 267.938,65.063L272.625,60.906C273.092,60.471 273.314,59.717 273.188,59.094C273.065,58.468 272.503,58.035 271.906,57.813L266.125,55.656C265.978,55.148 265.752,54.533 265.594,54.031L269.188,48.969C269.561,48.452 269.806,47.746 269.563,47.156C269.32,46.569 268.753,46.166 268.125,46.063L261.969,45.156C261.728,44.687 261.503,44.177 261.25,43.719L263.781,37.906C264.048,37.325 263.949,36.809 263.594,36.281C263.24,35.751 262.608,35.351 261.969,35.375L255.813,35.563C255.488,35.157 255.055,34.864 254.719,34.469L256.188,28.344C256.333,27.723 256.074,26.982 255.625,26.531C255.176,26.081 254.621,26.01 254,26.156L247.844,27.594C247.447,27.258 247.001,26.856 246.594,26.531L246.938,20.188C246.962,19.552 246.561,19.103 246.031,18.75C245.5,18.395 244.83,18.299 244.25,18.563L238.625,21.094C238.164,20.841 237.654,20.617 237.188,20.375L236.094,14.219C235.992,13.592 235.588,13.024 235,12.781C234.413,12.537 233.704,12.597 233.188,12.969L228.125,16.563C227.624,16.403 227.196,16.365 226.688,16.219L224.531,10.25C224.309,9.652 223.688,9.28 223.063,9.156C222.438,9.034 221.871,9.223 221.438,9.688L217.094,14.219C216.577,14.161 216.175,14.262 215.656,14.219L212.219,8.781C211.885,8.241 211.418,7.906 210.781,7.906ZM210.594,19.094C211.56,19.116 212.591,19.62 213.313,20.375C214.753,21.888 214.635,24.37 213.125,25.813C211.618,27.257 209.318,27.137 207.875,25.625C206.436,24.114 206.365,21.632 207.875,20.188C208.629,19.465 209.627,19.071 210.594,19.094ZM210.313,34.594C234.33,34.594 249.719,48.831 249.719,71.313C249.719,93.096 234.49,107.219 211.031,107.219C187.293,107.219 172.344,92.838 172.344,69.938C172.344,48.852 187.691,34.594 210.313,34.594ZM211.156,48.844C202.22,48.844 197.75,56.513 197.75,71.594C197.75,86.116 202.359,93.656 211.156,93.656C219.674,93.656 224.281,86.118 224.281,71.875C224.281,56.515 219.953,48.844 211.156,48.844ZM165.375,53.469C166.847,53.444 168.365,54.225 169,55.656C169.846,57.566 168.905,59.874 167,60.719C165.093,61.566 162.783,60.627 161.938,58.719C161.091,56.808 162.002,54.503 163.906,53.656C164.383,53.445 164.884,53.477 165.375,53.469ZM255.625,53.656C256.116,53.665 256.617,53.632 257.094,53.844C259.001,54.69 259.909,56.997 259.063,58.906C258.218,60.817 255.908,61.754 254,60.906C252.095,60.06 251.343,57.725 252.188,55.813C252.821,54.38 254.153,53.631 255.625,53.656ZM182.594,106.563C184.323,106.544 185.773,107.775 186.156,109.563C186.593,111.605 185.32,113.625 183.281,114.063C181.242,114.502 179.189,113.231 178.75,111.188C178.314,109.141 179.773,107.096 181.813,106.656C182.067,106.602 182.347,106.565 182.594,106.563ZM238.531,106.75C238.814,106.748 239.089,106.789 239.344,106.844C241.383,107.28 242.688,109.333 242.25,111.375C241.812,113.417 239.757,114.686 237.719,114.25C235.679,113.81 234.406,111.765 234.844,109.719C235.171,108.186 236.273,107.12 237.719,106.844C237.96,106.798 238.248,106.752 238.531,106.75Z" style="fill-rule:nonzero;"/>
        </g>
        <g id="path6060" transform="matrix(1,0,0,1,-1e-05,12.0705)">
            <path d="M156.01,66.747L165.505,14.662C169.415,11.59 174.442,9.775 179.329,9.775C184.635,9.775 187.847,12.288 187.847,16.617C187.847,18.013 187.847,18.293 187.707,19.131L182.261,48.035C181.842,50.549 181.563,52.783 181.563,54.319C181.563,62.418 188.685,68.003 199.018,68.003C206.279,68.003 213.121,65.071 221.08,58.508L215.635,50.688C212.702,52.504 211.585,52.923 209.77,52.923C206.558,52.923 204.603,51.107 204.603,48.175C204.603,46.918 204.603,46.918 205.72,41.193L210.049,16.757C210.887,12.707 211.027,11.171 211.027,9.216C211.027,0.419 202.648,-5.864 190.919,-5.864C182.96,-5.864 173.744,-2.513 167.739,2.514L168.996,-4.608L161.735,-4.608C151.122,-1.256 145.397,-0.279 134.925,0.28L132.83,11.73L134.506,11.73C136.879,11.73 140.65,12.987 141.906,13.964C142.465,14.523 142.744,15.5 142.744,16.757C142.744,17.734 142.465,20.108 142.186,21.923L133.947,66.747L156.01,66.747" style="fill-rule:nonzero;"/>
        </g>
        <g id="path6062" transform="matrix(1,0,0,1,-1e-05,12.0705)">
            <path d="M274.75,42.869C264.697,50.968 256.598,54.598 248.499,54.598C239.283,54.598 234.116,49.152 234.116,39.518C234.116,22.203 245.287,5.027 256.458,5.027C260.228,5.027 263.021,7.122 263.021,10.054C263.021,10.892 262.881,11.869 262.462,12.987C262.043,14.662 261.904,15.5 261.904,16.338C261.904,21.085 266.372,24.716 272.237,24.716C279.638,24.716 285.921,18.991 285.921,12.149C285.921,2.095 273.773,-5.864 258.692,-5.864C233.278,-5.864 210.657,14.802 210.657,37.981C210.657,55.855 223.923,68.003 243.332,68.003C257.017,68.003 272.935,61.022 282.151,50.968L274.75,42.869" style="fill-rule:nonzero;"/>
        </g>
        <g id="path6066" transform="matrix(1,0,0,1,-1e-05,12.0705)">
            <path d="M440.288,50.863C436.936,52.539 434.283,53.376 432.189,53.376C429.396,53.376 427.162,51.282 427.162,48.489C427.162,47.512 427.302,46.255 427.581,44.859L442.103,-35.014L434.563,-35.014C427.162,-31.662 417.387,-29.707 408.171,-29.707L406.216,-18.257L407.752,-18.257C410.126,-18.257 413.617,-17.14 414.874,-16.023C415.293,-15.604 415.712,-14.487 415.712,-13.37C415.712,-12.532 415.432,-9.739 415.014,-8.064L404.401,50.863C403.982,52.818 403.843,54.494 403.843,55.471C403.843,63.291 411.104,68.457 421.995,68.457C429.955,68.457 438.193,65.246 445.873,59.241L440.288,50.863" style="fill-rule:nonzero;"/>
        </g>
        <g id="path6068" transform="matrix(1,0,0,1,-1e-05,12.0705)">
            <path d="M476.088,50.863C472.737,52.539 470.084,53.376 467.99,53.376C465.197,53.376 462.963,51.282 462.963,48.489C462.963,47.512 463.102,46.255 463.381,44.859L477.904,-35.014L470.363,-35.014C462.963,-31.662 453.188,-29.707 443.972,-29.707L442.017,-18.257L443.553,-18.257C445.927,-18.257 449.418,-17.14 450.675,-16.023C451.093,-15.604 451.512,-14.487 451.512,-13.37C451.512,-12.532 451.233,-9.739 450.814,-8.064L440.202,50.863C439.783,52.818 439.643,54.494 439.643,55.471C439.643,63.291 446.904,68.457 457.796,68.457C465.755,68.457 473.994,65.246 481.674,59.241L476.088,50.863" style="fill-rule:nonzero;"/>
        </g>
        <g id="path6070" transform="matrix(1,0,0,1,-1e-05,12.0705)">
            <path d="M512.646,50.304C508.736,52.259 505.525,53.376 503.709,53.376C500.777,53.376 498.264,51.142 498.264,48.489C498.264,47.512 498.543,45.696 498.962,43.742C499.101,43.183 499.241,41.926 499.66,39.971L507.619,-4.154L500.358,-4.154C489.746,-0.803 484.021,0.175 473.548,0.733L471.453,12.184L473.129,12.184C475.503,12.184 479.273,13.44 480.53,14.418C481.088,14.976 481.368,15.954 481.368,17.211C481.368,18.188 481.088,20.562 480.809,22.377L476.201,47.791C475.503,51.003 475.363,52.678 475.363,54.633C475.363,62.872 482.624,68.457 493.516,68.457C501.615,68.457 510.831,64.687 518.511,58.124L512.646,50.304M501.336,-39.203C493.376,-39.203 485.557,-31.523 485.557,-23.424C485.557,-16.861 490.025,-12.253 496.448,-12.253C504.547,-12.253 512.507,-20.072 512.507,-28.032C512.507,-34.595 508.038,-39.203 501.336,-39.203" style="fill-rule:nonzero;"/>
        </g>
        <g id="path6072" transform="matrix(1,0,0,1,-1e-05,12.0705)">
            <path d="M592.13,49.187C591.851,49.467 591.432,49.746 591.432,49.746C587.522,52.678 587.243,52.818 585.009,52.818C582.077,52.818 579.842,50.584 579.842,47.512C579.842,45.417 580.261,42.206 580.959,38.016L594.225,-35.014L586.266,-35.014C578.725,-31.662 569.09,-29.707 559.874,-29.707L557.78,-18.257L559.455,-18.257C561.69,-18.257 565.32,-17.14 566.577,-16.023C566.996,-15.604 567.415,-14.487 567.415,-13.37C567.415,-12.392 567.135,-10.298 566.717,-8.064L565.46,-0.663C560.433,-3.595 554.01,-5.411 548.564,-5.411C526.362,-5.411 506.812,15.256 506.812,38.435C506.812,55.611 518.542,68.457 534.321,68.457C540.465,68.457 547.167,66.083 551.775,62.313L557.361,57.147C559.176,64.408 565.181,68.457 574.117,68.457C582.077,68.457 591.293,64.128 598.135,57.147L592.13,49.187M562.807,10.787C563.086,10.927 563.086,10.927 563.226,11.067C559.455,32.71 556.802,41.507 551.915,47.791C548.145,52.539 544.095,55.052 540.046,55.052C533.902,55.052 530.271,50.025 530.271,41.368C530.271,33.129 533.204,22.237 537.253,16.093C541.163,9.81 545.911,6.877 551.775,6.877C555.685,6.877 559.735,8.274 562.527,10.508L562.807,10.787" style="fill-rule:nonzero;"/>
        </g>
        <g id="path6074" transform="matrix(1,0,0,1,-1e-05,12.0705)">
            <path d="M651.035,42.904C641.4,51.142 633.161,55.052 624.783,55.052C616.405,55.052 610.959,49.886 610.959,42.066C610.959,40.251 611.099,38.435 611.378,36.061C612.914,36.201 614.45,36.201 615.009,36.201C626.878,36.201 637.35,34.386 646.706,30.755C656.76,26.845 662.206,20.143 662.206,11.765C662.206,1.432 652.431,-5.411 637.63,-5.411C610.121,-5.411 587.221,14.697 587.221,38.854C587.221,56.309 600.626,68.457 620.175,68.457C629.81,68.457 638.468,65.664 648.661,59.102C653.129,56.169 656.062,53.935 658.575,51.142L651.035,42.904M613.333,26.427C614.171,22.377 616.405,17.769 619.617,13.72C623.666,8.413 628.693,5.481 633.72,5.481C638.328,5.481 641.539,8.274 641.539,12.184C641.539,20.003 629.531,26.427 615.009,26.427L613.333,26.427" style="fill-rule:nonzero;"/>
        </g>
    </g>
</svg>
