<?xml version="1.0" encoding="UTF-8" standalone="no"?>
<!DOCTYPE svg PUBLIC "-//W3C//DTD SVG 1.1//EN" "http://www.w3.org/Graphics/SVG/1.1/DTD/svg11.dtd">
<svg width="100%" height="100%" viewBox="0 0 178 48" version="1.1" xmlns="http://www.w3.org/2000/svg" xmlns:xlink="http://www.w3.org/1999/xlink" xml:space="preserve" xmlns:serif="http://www.serif.com/" style="fill-rule:evenodd;clip-rule:evenodd;stroke-linejoin:round;stroke-miterlimit:1.41421;">
    <g transform="matrix(0.721553,0,0,0.721553,-131.14,-4.66593)">
        <path d="M223.363,38.585L222.963,39.635L222.163,40.185L221.313,39.585L220.913,39.585C220.646,39.651 220.43,39.685 220.263,39.685L220.013,39.685L219.513,39.835L219.163,39.635C218.996,39.668 218.746,39.685 218.413,39.685C218.113,39.685 217.896,39.668 217.763,39.635L215.763,39.935L215.163,39.735C214.73,39.735 214.38,39.751 214.113,39.785L213.813,40.535L213.313,41.185L213.213,42.935L212.663,43.485L212.313,44.685L211.913,44.935C211.88,45.101 211.796,45.251 211.663,45.385C211.73,45.385 211.821,45.401 211.938,45.435C212.055,45.468 212.146,45.485 212.213,45.485C212.313,45.451 212.446,45.435 212.613,45.435C212.846,45.435 213.08,45.501 213.313,45.635L213.763,45.635L214.713,45.535L215.263,45.785L215.663,45.635L216.313,45.985L216.263,45.785C216.663,45.718 216.98,45.685 217.213,45.685C217.713,45.685 218.213,45.735 218.713,45.835C219.113,45.735 219.513,45.685 219.913,45.685C220.146,45.685 220.496,45.718 220.963,45.785L221.813,47.885L220.763,48.185L220.063,48.735L219.213,48.135L218.763,48.135C218.496,48.201 218.313,48.235 218.213,48.235C218.18,48.235 218.13,48.218 218.063,48.185C217.963,48.185 217.896,48.185 217.863,48.185L217.413,48.385L217.013,48.185C216.913,48.185 216.78,48.185 216.613,48.185C216.446,48.218 216.33,48.235 216.263,48.235C216.163,48.235 216.046,48.218 215.913,48.185C215.78,48.185 215.68,48.185 215.613,48.185L213.613,48.485L213.013,48.285C212.28,48.285 211.513,48.385 210.713,48.585L210.413,48.785L210.313,48.985L210.463,49.235L210.163,49.685L209.663,50.085L209.413,50.985L208.763,52.535L208.613,53.585L208.163,54.385L208.063,55.785L207.213,57.085L206.613,58.935L206.513,60.085L205.213,62.135L202.913,61.235L203.663,59.135L203.613,58.185L204.013,57.435L204.113,56.635L204.413,56.485L204.463,55.785L204.713,54.985L205.563,52.785C205.696,52.051 205.813,51.535 205.913,51.235L206.413,50.735L206.463,49.835L206.913,48.785L206.863,48.335C206.53,48.435 206.263,48.585 206.063,48.785L206.013,48.385C205.146,48.518 204.746,48.585 204.813,48.585L204.063,48.385L202.613,48.835L201.413,48.485L201.313,48.635L201.013,49.685L200.463,50.085L200.213,50.985L199.563,52.535L199.363,53.585L199.013,54.385L198.863,55.785L198.013,57.085L197.413,58.935L197.313,60.085L196.013,62.135L193.713,61.235L194.463,59.135L194.413,58.185L194.813,57.435L194.913,56.635L195.213,56.485L195.263,55.785L195.513,54.985L196.263,53.085L196.713,51.235L197.163,50.735L197.263,49.835L197.713,48.785L197.013,48.485L196.813,48.535L195.963,48.735L195.163,48.435L194.013,48.635L193.263,48.985L192.363,48.385L191.563,47.835L191.513,46.985C191.446,46.851 191.413,46.518 191.413,45.985C191.88,45.685 192.28,45.535 192.613,45.535L193.613,45.235L194.613,45.085L195.663,45.285L196.563,45.185L198.113,45.385L199.163,45.235L199.363,44.885L199.413,44.535L199.313,44.385L199.363,44.135L199.513,44.135L199.513,43.385C199.58,43.185 199.713,42.818 199.913,42.285L200.113,42.185L200.063,41.185L200.613,40.985L200.613,40.785C200.613,40.518 200.696,40.251 200.863,39.985C200.696,40.018 200.396,40.101 199.963,40.235L199.113,39.935L198.113,40.185L197.313,39.935L196.163,40.035L195.413,40.385L194.463,39.785L193.663,39.335L193.613,38.485C193.546,38.285 193.513,38.101 193.513,37.935C193.513,37.901 193.53,37.818 193.563,37.685C193.563,37.585 193.563,37.501 193.563,37.435C194.063,37.135 194.463,36.985 194.763,36.985L195.713,36.685L196.713,36.535L197.813,36.785L198.663,36.685L200.213,36.885L201.413,36.685L202.263,36.785L202.513,35.685L203.613,33.435L203.663,31.585L204.613,31.135L204.813,29.585L205.613,28.235C205.78,28.068 206.496,27.585 207.763,26.785L209.563,28.385L208.763,30.535L207.713,32.785L207.263,33.585L206.863,34.935L205.963,36.885L206.213,36.935L206.513,36.935C206.613,36.935 206.996,36.968 207.663,37.035C207.93,36.935 208.246,36.885 208.613,36.885C208.913,36.885 209.146,36.901 209.313,36.935L209.463,37.085L211.613,36.885C211.613,36.618 211.646,36.218 211.713,35.685L212.813,33.435L212.863,31.585L213.763,31.135L214.013,29.585L214.813,28.235C215.246,27.835 215.963,27.351 216.963,26.785L218.763,28.385L217.963,30.535L216.913,32.785L216.463,33.585L216.063,34.935L215.163,36.935L215.463,37.085L215.863,37.085L216.813,37.035L217.413,37.235L217.813,37.135L218.413,37.435L218.413,37.285C218.646,37.218 219.03,37.185 219.563,37.185C220.096,37.185 220.513,37.218 220.813,37.285C221.113,37.185 221.363,37.135 221.563,37.135C222.163,37.135 222.68,37.168 223.113,37.235L223.363,38.585ZM209.963,39.985C209.296,39.851 208.813,39.785 208.513,39.785C208.046,39.785 207.513,39.868 206.913,40.035L206.213,39.885L204.713,40.285L204.613,40.535L204.113,41.185L204.013,42.935L203.463,43.485L203.113,44.685L202.713,44.935L202.563,45.335L202.913,45.535L203.463,45.385L204.013,45.385C204.646,45.385 205.163,45.451 205.563,45.585C205.763,45.485 206.046,45.435 206.413,45.435C206.48,45.435 206.596,45.435 206.763,45.435C206.93,45.468 207.063,45.485 207.163,45.485L207.363,45.585L208.163,45.535L208.613,44.885L208.613,44.035L208.713,44.285L208.713,44.035C208.713,43.468 208.846,42.885 209.113,42.285L209.313,42.185L209.263,41.185L209.813,40.985C209.813,40.518 209.863,40.185 209.963,39.985Z" style="fill-rule:nonzero;"/>
        <path d="M233.263,31.185L233.113,31.335L232.963,32.185L232.713,32.185L232.563,32.735L232.713,32.735C232.78,33.135 232.846,33.435 232.913,33.635L232.713,34.085C232.78,34.418 232.813,34.651 232.813,34.785C232.813,34.885 232.78,35.085 232.713,35.385L232.613,35.835L232.463,39.835L232.763,40.335L232.463,41.585L232.763,42.635L232.513,43.135C232.613,43.468 232.663,43.801 232.663,44.135L232.913,44.985L232.613,45.135L232.613,45.385C232.613,45.685 232.58,45.901 232.513,46.035L232.513,46.385C232.313,47.285 231.83,47.735 231.063,47.735C230.063,47.735 229.563,47.085 229.563,45.785L229.563,44.835L229.463,43.735L229.163,42.735L229.413,42.185L229.163,41.685L229.413,40.385L228.913,40.185L229.213,39.035L229.113,38.585L229.113,37.685L229.013,37.435L229.113,36.885C229.113,36.718 229.18,36.468 229.313,36.135L229.213,35.985L229.213,35.685L228.763,35.185L229.313,34.435L229.113,33.885L229.263,33.385C229.263,33.185 229.263,32.951 229.263,32.685C229.23,32.418 229.213,32.251 229.213,32.185C229.213,32.051 229.23,31.901 229.263,31.735C229.263,31.568 229.263,31.451 229.263,31.385C229.196,31.185 229.163,31.051 229.163,30.985L229.013,30.785C229.013,30.651 229.08,30.551 229.213,30.485L229.063,30.285L229.063,29.685L228.563,29.235L228.763,26.885L230.213,27.085L231.013,26.935L232.863,27.485L233.113,28.185C233.146,28.385 233.163,28.668 233.163,29.035C233.163,29.235 233.146,29.385 233.113,29.485L232.963,29.785L232.863,29.935L233.263,31.185ZM234.263,52.335L234.113,53.035C234.046,53.335 234.013,53.535 234.013,53.635L232.713,54.585L231.863,54.335L231.113,54.685L230.413,54.285L229.363,54.285L228.763,52.385L229.163,51.135L229.913,50.435L230.113,50.385L230.613,49.885C231.113,49.951 231.48,50.035 231.713,50.135C232.246,50.135 232.63,50.218 232.863,50.385C232.696,50.485 232.53,50.568 232.363,50.635L233.463,50.785L233.813,51.435L234.263,52.335Z" style="fill-rule:nonzero;"/>
        <path d="M261.363,57.435C260.83,58.235 259.93,58.685 258.663,58.785C258.03,58.718 257.38,58.568 256.713,58.335L255.863,58.535L255.513,58.435C255.08,58.601 254.73,58.685 254.463,58.685C254.596,58.685 254.363,58.635 253.763,58.535C253.463,58.668 253.113,58.735 252.713,58.735L251.663,58.735C251.563,58.768 251.396,58.801 251.163,58.835L250.513,58.885L250.113,59.085L249.263,60.385L247.013,59.535C246.38,59.735 245.78,59.835 245.213,59.835C244.38,59.835 243.963,59.368 243.963,58.435C243.963,58.235 243.98,58.068 244.013,57.935L245.513,57.135L245.463,56.185C245.763,55.985 245.913,55.701 245.913,55.335C245.913,55.268 245.88,55.068 245.813,54.735L245.963,54.835L245.713,53.785L246.113,53.185L245.913,52.335L246.113,51.985L245.613,51.735L246.413,50.185L246.263,49.285L246.563,48.635L246.563,47.785L246.713,47.435L246.513,46.535L246.663,46.035L246.513,45.085C246.78,44.218 246.913,43.451 246.913,42.785C247.146,42.585 247.263,42.368 247.263,42.135C247.263,42.001 247.23,41.835 247.163,41.635C246.996,41.468 246.913,41.235 246.913,40.935C246.913,40.568 247.005,40.118 247.188,39.585C247.371,39.051 247.48,38.701 247.513,38.535L247.863,36.235L247.513,35.185L247.813,33.235L247.613,31.985L247.613,31.135L247.863,30.835L247.463,29.435L247.913,29.035C247.846,28.935 247.813,28.801 247.813,28.635C247.68,28.435 247.613,28.251 247.613,28.085L247.613,26.535C247.613,26.301 247.663,26.085 247.763,25.885L247.513,26.035L247.513,25.935L247.313,25.985L243.513,25.135L245.213,22.935L245.763,22.935C246.096,22.935 246.63,22.901 247.363,22.835L247.313,23.035L248.063,22.535L249.113,22.685L249.213,22.935L249.313,22.935L250.263,22.785L250.563,22.835L250.713,22.785C250.78,22.785 250.863,22.785 250.963,22.785C251.096,22.818 251.18,22.835 251.213,22.835C251.846,22.835 252.33,22.668 252.663,22.335L253.263,22.485L254.013,21.935L254.613,22.185C254.913,22.118 255.296,22.085 255.763,22.085L257.063,21.835L258.163,22.785C258.096,22.985 258.063,23.101 258.063,23.135C258.063,23.435 258.413,23.985 259.113,24.785L256.813,25.185L256.163,25.635L255.263,25.535C254.93,25.801 254.396,25.935 253.663,25.935C253.196,25.935 252.83,25.901 252.563,25.835C252.463,25.835 252.296,25.851 252.063,25.885C251.83,25.918 251.646,25.935 251.513,25.935C251.18,25.935 250.913,25.918 250.713,25.885L250.263,26.085L250.263,26.385L250.713,27.235L250.863,28.035C250.996,28.268 251.063,28.551 251.063,28.885C251.063,29.085 251.046,29.235 251.013,29.335L251.113,31.085L251.313,32.435L251.113,33.185L251.313,34.585L251.113,35.185L251.313,36.485L251.063,37.085L251.313,38.035L251.063,38.185C251.03,38.885 250.946,39.618 250.813,40.385L250.863,41.385C250.963,41.551 251.063,41.635 251.163,41.635L251.213,41.635C251.113,42.035 251.013,42.335 250.913,42.535L250.963,42.935L250.813,42.985L250.713,43.185C250.58,43.585 250.513,44.051 250.513,44.585L250.713,46.135C250.513,46.468 250.413,46.751 250.413,46.985C250.413,47.051 250.43,47.135 250.463,47.235C250.463,47.368 250.463,47.468 250.463,47.535C250.463,47.568 250.421,47.701 250.338,47.935C250.255,48.168 250.213,48.401 250.213,48.635L250.213,50.335L250.063,51.135L250.063,52.335L250.263,53.235L250.263,54.885C250.263,55.385 250.113,55.801 249.813,56.135L250.863,55.885L252.263,55.785L253.613,55.335L254.163,55.535L254.963,55.385L256.113,54.735L256.513,55.385L257.363,55.435C257.696,55.201 258.063,55.085 258.463,55.085C258.663,55.085 258.963,55.151 259.363,55.285C260.096,55.651 260.53,56.151 260.663,56.785L261.363,57.435Z" style="fill-rule:nonzero;"/>
        <path d="M293.963,46.185C293.963,46.451 293.746,46.801 293.313,47.235L292.763,48.085L292.563,49.085L292.113,49.235L292.013,49.535C291.48,49.701 291.096,50.118 290.863,50.785C290.496,51.251 290.096,51.585 289.663,51.785C289.496,51.951 289.346,52.068 289.213,52.135L288.963,52.585L288.513,52.685L287.213,53.385L285.513,53.585L285.063,53.485L284.313,53.635L284.013,53.285C283.546,53.051 283.213,52.818 283.013,52.585C282.613,52.485 282.313,52.168 282.113,51.635C281.546,50.968 281.263,50.435 281.263,50.035L281.263,49.885L280.913,49.285L280.813,49.185L280.513,48.285L280.063,47.335L280.163,46.185L279.663,45.535L278.913,41.235C278.813,40.668 278.763,40.185 278.763,39.785L278.663,39.535L278.413,39.185L277.963,39.785L276.163,41.685L275.513,42.735L275.163,43.435L274.613,44.235L274.213,44.635L274.263,44.885L273.563,46.435L273.163,46.935L272.663,47.035L272.213,47.485C272.213,48.151 271.896,48.585 271.263,48.785L271.163,48.885C270.863,49.618 270.53,50.068 270.163,50.235L269.713,50.935C268.98,51.601 268.496,52.018 268.263,52.185C268.163,52.518 267.98,52.801 267.713,53.035C267.646,53.135 267.53,53.268 267.363,53.435C267.263,54.001 266.796,54.401 265.963,54.635L265.413,54.785C264.746,54.751 264.196,54.368 263.763,53.635L263.013,52.385L263.263,51.185L263.163,50.535L263.263,50.435L263.313,49.785L262.763,48.585L263.163,47.985L262.963,47.335L263.313,46.635L263.413,45.485L263.213,45.285L263.613,44.585L263.463,44.235L263.413,43.435L263.613,41.935C263.546,41.601 263.513,41.385 263.513,41.285C263.513,41.218 263.53,41.151 263.563,41.085C263.563,40.985 263.563,40.918 263.563,40.885L263.313,40.485L263.463,38.885L263.413,38.335L263.563,37.535L263.363,36.185L264.263,34.685C265.296,34.851 266.013,35.076 266.413,35.36C266.813,35.643 267.013,36.151 267.013,36.885L267.013,37.335L267.363,37.935L267.213,38.985L267.413,40.985L267.063,41.935L267.213,42.985L267.213,43.835L266.813,44.385L267.113,45.285L266.813,45.835L266.763,46.385L267.063,46.935L266.663,47.985L266.513,48.435L266.513,48.885L266.763,49.385L267.613,48.535C267.613,48.035 267.78,47.701 268.113,47.535C268.146,47.201 268.28,46.951 268.513,46.785L268.363,46.635L269.013,46.035L269.163,45.835L269.163,45.385L269.963,44.785L270.163,44.285L270.613,43.985L272.563,41.785C272.396,41.985 271.846,42.601 270.913,43.635L270.913,43.735L271.013,43.385L271.663,42.635L272.113,41.785L272.113,41.285L272.863,41.035L272.963,40.385L273.163,40.185L273.213,39.935L273.213,39.585L273.913,38.885C273.913,38.818 273.913,38.735 273.913,38.635C273.88,38.535 273.863,38.468 273.863,38.435C273.863,37.835 274.196,37.501 274.863,37.435C275.163,36.835 275.613,36.485 276.213,36.385L276.513,35.935L276.613,35.835C276.913,35.401 277.363,35.101 277.963,34.935L278.413,34.385L279.613,34.385L280.213,35.085L280.763,35.385L280.813,35.535L281.163,35.635L281.263,36.685L282.113,37.185L281.763,38.285L282.313,39.485L282.313,40.885L282.713,42.785L282.813,44.585L283.263,45.635L283.563,46.935C283.763,47.135 283.913,47.418 284.013,47.785L284.913,48.035L284.913,49.035L285.413,49.585L285.413,49.735L285.613,49.785L285.813,50.085L286.013,49.835C285.946,49.835 286.03,49.851 286.263,49.885C286.63,49.885 287.013,49.551 287.413,48.885L288.013,48.735L288.163,48.485C288.263,48.218 288.463,48.018 288.763,47.885L289.113,47.935L289.313,47.735L289.363,47.485L289.513,47.285C289.846,47.051 290.063,46.701 290.163,46.235L290.713,45.635L290.813,45.185L291.163,44.385L292.113,44.035L293.463,44.485L293.913,45.935C293.913,45.968 293.93,46.001 293.963,46.035C293.963,46.101 293.963,46.151 293.963,46.185Z" style="fill-rule:nonzero;"/>
        <path d="M313.163,42.585L312.863,43.485C312.863,44.351 312.813,45.035 312.713,45.535L312.413,46.035L312.413,46.585L312.163,46.935L312.013,47.635L311.463,48.185L311.113,49.435L310.713,49.585L310.513,50.135L309.913,50.485L309.513,51.335L308.913,51.635L308.863,52.235L307.913,52.585C307.48,53.185 306.946,53.568 306.313,53.735L306.113,53.785C305.646,54.485 305.03,54.835 304.263,54.835C303.93,55.035 303.546,55.135 303.113,55.135L302.613,55.485L302.113,55.635L301.463,56.135L300.813,56.085L300.113,56.285L299.263,55.935L297.113,55.785L296.363,54.635L295.263,53.485L295.513,52.685L294.763,50.985L295.113,50.335L294.863,49.135L295.113,48.385C295.046,47.918 295.013,47.585 295.013,47.385C295.013,46.751 295.18,46.285 295.513,45.985C295.546,45.651 295.763,45.101 296.163,44.335L296.413,44.335L296.313,43.985L296.463,43.285L296.463,42.535C296.73,42.235 296.88,42.035 296.913,41.935L296.763,41.235L296.763,41.035C296.996,40.568 297.113,40.085 297.113,39.585L298.163,38.135C298.163,38.135 298.205,38.101 298.288,38.035C298.371,37.968 298.446,37.901 298.513,37.835L298.463,37.635L298.663,37.635L299.413,36.785L299.463,35.635L300.713,35.185C301.18,34.885 301.48,34.385 301.613,33.685L302.263,33.685C302.63,33.485 302.963,33.385 303.263,33.385C303.563,33.385 303.846,33.451 304.113,33.585L304.663,33.635L305.963,33.135L306.663,33.785L307.213,34.135L307.613,34.135L308.363,34.535L308.763,34.535C309.196,34.935 309.696,35.485 310.263,36.185L310.363,36.435L310.713,36.635L311.763,37.985L312.713,40.335L312.713,40.835L313.163,42.585ZM309.863,43.785L309.813,43.535C309.58,43.301 309.446,43.051 309.413,42.785L309.563,42.535L309.113,41.585L309.213,40.635L309.013,40.385C308.58,40.051 308.346,39.785 308.313,39.585C308.013,39.451 307.863,39.118 307.863,38.585L307.563,38.535L306.963,37.535L306.513,37.185L305.463,36.785L305.063,36.685C304.863,36.685 304.73,36.618 304.663,36.485L303.663,37.585L303.013,38.985L301.963,39.535L301.813,40.085L301.313,40.335L301.113,41.635L300.513,41.935C300.38,42.401 300.313,42.835 300.313,43.235L299.513,43.985L299.763,44.135C299.763,44.535 299.613,44.885 299.313,45.185C299.213,45.485 299.08,45.818 298.913,46.185L298.913,46.585L298.763,46.785L298.813,47.385L298.263,48.735L298.363,48.985L298.363,50.385L298.163,51.085L298.213,51.785L298.663,52.435L299.363,52.685L299.613,52.785L300.013,52.585L301.313,52.685L301.513,52.185L301.713,52.185C301.913,52.185 302.03,52.235 302.063,52.335L302.513,52.185L302.913,52.335L303.563,51.885L303.663,51.735L304.113,51.635C304.346,51.268 304.896,50.901 305.763,50.535L305.863,50.285L306.863,49.585L307.413,48.785L308.213,48.385L308.263,48.135L308.513,47.585L308.513,46.935L309.113,46.435L309.313,46.085L309.563,45.785C309.43,45.385 309.363,45.101 309.363,44.935C309.363,44.635 309.463,44.318 309.663,43.985L309.863,43.785Z" style="fill-rule:nonzero;"/>
        <path d="M331.263,44.035L330.163,44.835L328.763,44.685L328.113,44.785L326.763,44.935L325.063,44.835C324.796,44.901 324.413,44.935 323.913,44.935L323.263,44.935L322.063,45.085L321.713,44.985L319.863,45.185C319.663,45.051 319.496,44.985 319.363,44.985C319.163,44.985 318.93,45.068 318.663,45.235L317.813,45.085L316.863,45.085L316.013,43.985L316.013,42.985L316.663,42.935L317.163,42.285L318.413,42.785L318.863,42.635C319.03,42.668 319.263,42.685 319.563,42.685L319.813,42.685L320.113,42.585L320.113,42.785L320.613,42.935L320.963,42.685L321.613,42.785L322.663,42.785L324.963,42.685L325.063,42.935L325.263,42.885L325.463,43.035L326.113,42.835C326.38,42.968 326.713,43.035 327.113,43.035C327.38,43.035 327.663,42.985 327.963,42.885L328.763,43.085L329.363,43.085C330.496,43.085 331.13,43.401 331.263,44.035Z" style="fill-rule:nonzero;"/>
        <path d="M353.513,50.185L352.913,50.885L352.363,52.185L351.963,52.485L351.613,53.185L350.613,53.285L349.963,53.935L348.963,53.935L348.363,54.435L347.813,54.285L347.163,54.435L347.163,54.835L345.313,54.685L344.513,54.735L343.913,55.035L343.413,54.735C343.746,54.701 344.013,54.685 344.213,54.685C343.946,54.718 343.146,54.785 341.813,54.885L341.663,54.835L341.263,54.785L340.613,55.135C340.413,55.001 340.046,54.851 339.513,54.685C338.78,54.618 338.296,54.585 338.063,54.585L337.663,54.585C337.43,54.551 337.18,54.535 336.913,54.535C336.646,54.535 336.38,54.601 336.113,54.735L335.413,54.285L335.013,54.185C334.913,54.185 334.73,54.135 334.463,54.035C333.23,53.901 332.613,52.868 332.613,50.935L332.613,50.485L333.563,49.785L334.763,49.335L335.663,49.785L336.363,49.785L336.363,49.935C336.696,50.068 336.963,50.335 337.163,50.735L337.563,50.785L337.563,51.435L338.213,51.585L338.363,51.685L344.763,51.285L346.313,51.035L346.463,51.035L346.563,50.785L347.263,50.685L347.363,50.535C348.063,50.435 348.713,50.235 349.313,49.935L349.363,49.685C349.33,49.651 349.263,49.535 349.163,49.335L348.913,49.385L348.263,48.885L347.813,48.885L347.563,48.535L347.713,48.335L347.163,48.435L346.763,47.985C346.663,48.018 346.496,48.035 346.263,48.035C345.83,48.035 345.396,47.951 344.963,47.785L344.513,47.785L344.163,47.635L343.463,47.885L343.063,47.435L342.913,47.435L342.213,46.885L340.663,46.285L340.163,45.885L338.263,45.535L338.063,45.185L336.663,44.285L335.913,42.635L335.313,41.785L335.113,39.185L335.313,38.885C335.38,38.118 335.646,37.451 336.113,36.885C336.613,36.618 336.863,36.235 336.863,35.735L337.613,35.585C337.746,35.318 338.013,35.068 338.413,34.835L339.163,34.235L342.313,33.035L342.863,32.885L343.863,32.785L345.513,32.335L348.663,32.535L348.763,32.785C349.063,32.885 349.396,33.151 349.763,33.585L349.763,33.835L350.563,34.335L350.213,35.535L350.113,35.985C349.913,36.818 349.446,37.235 348.713,37.235C348.113,37.235 347.663,36.951 347.363,36.385L347.363,36.235L346.763,36.185L346.063,36.385L345.413,35.935L345.063,36.185C344.63,36.185 344.23,36.318 343.863,36.585C343.363,36.585 342.88,36.785 342.413,37.185L341.763,37.185L341.313,37.535L340.613,37.685L340.513,37.785L340.213,37.935L339.763,38.385L339.613,38.435L339.163,39.135L338.613,39.435C338.48,39.868 338.396,40.235 338.363,40.535C338.396,41.001 338.455,41.31 338.538,41.46C338.621,41.61 338.846,41.768 339.213,41.935L339.213,42.185L339.863,42.535C340.396,42.735 340.796,42.951 341.063,43.185L342.063,43.185L342.713,43.735L343.863,43.885L344.313,44.185L346.263,44.735L346.513,45.285L346.713,44.935C347.146,44.935 347.73,45.135 348.463,45.535L349.363,45.685L349.463,46.035L350.263,46.035L351.663,46.835C351.83,47.268 352.196,47.668 352.763,48.035L353.313,48.385L353.163,48.985C353.396,49.318 353.513,49.668 353.513,50.035L353.513,50.185Z" style="fill-rule:nonzero;"/>
        <path d="M372.963,36.335C372.963,36.635 372.663,36.918 372.063,37.185C371.93,37.351 371.68,37.501 371.313,37.635C370.846,37.835 370.513,38.001 370.313,38.135L369.263,37.785C368.73,38.185 368.046,38.385 367.213,38.385L366.613,38.235L366.163,38.635L364.813,38.635L363.963,39.185C363.596,39.051 363.246,38.985 362.913,38.985C362.813,39.051 362.58,39.118 362.213,39.185C362.046,39.185 361.863,39.135 361.663,39.035L361.513,40.935L361.563,42.335L361.413,44.085L361.513,45.985L361.663,46.885L361.663,47.585L362.363,49.085C362.263,49.185 362.213,49.301 362.213,49.435C362.213,49.668 362.58,49.851 363.313,49.985L363.413,50.585L363.763,50.735L364.363,51.135L364.763,51.435C365.096,51.368 365.33,51.335 365.463,51.335C365.763,51.335 366.063,51.385 366.363,51.485C366.496,51.418 366.78,51.185 367.213,50.785C367.513,50.518 367.796,50.385 368.063,50.385C368.096,50.385 368.146,50.385 368.213,50.385C368.28,50.418 368.33,50.435 368.363,50.435C368.663,49.801 369.196,49.385 369.963,49.185C370.663,49.185 371.246,49.401 371.713,49.835L371.713,50.185C371.713,51.318 371.313,52.035 370.513,52.335C370.213,53.035 369.58,53.485 368.613,53.685L368.013,54.235L367.363,54.235L366.213,54.535C365.946,54.601 365.563,54.635 365.063,54.635C364.796,54.635 364.513,54.568 364.213,54.435L363.563,54.435L361.813,53.485L361.363,53.335L360.313,51.935L359.713,51.285L358.613,48.785L358.213,46.435L358.313,45.835L357.913,45.285L358.163,44.585L357.913,43.485L358.263,43.135L358.363,42.485L358.213,41.885L358.313,40.985L358.113,40.185L358.363,39.935L358.363,39.135L358.013,38.985L357.063,39.185L356.163,38.535L356.013,38.535C355.013,38.535 354.513,38.001 354.513,36.935L354.513,36.785L353.913,35.835L354.863,34.935L356.113,35.135L356.763,35.035L357.713,35.285L358.763,35.285L358.763,34.285L358.113,32.885L358.763,32.535L358.513,31.785L358.563,30.235L358.163,29.585C357.93,29.218 357.813,28.885 357.813,28.585C357.813,28.218 357.896,27.918 358.063,27.685L358.213,26.985L358.613,26.585C359.513,26.418 360.113,26.335 360.413,26.335C361.48,26.335 362.063,26.818 362.163,27.785L362.013,28.035C362.213,28.335 362.313,28.618 362.313,28.885C362.313,28.918 362.296,29.001 362.263,29.135L362.163,29.435L362.113,29.785L362.313,30.435L362.263,30.685L362.363,31.385L361.913,31.985L362.163,32.985L361.963,34.185L362.363,34.635L361.963,35.535L363.513,35.335L366.263,35.585L368.463,35.235L369.213,35.285L369.463,35.235L371.413,35.235C372.446,35.235 372.963,35.601 372.963,36.335Z" style="fill-rule:nonzero;"/>
        <path d="M398.463,50.685L397.863,52.785L397.463,53.385C396.93,54.185 396.413,54.585 395.913,54.585C395.513,54.585 394.98,54.301 394.313,53.735L393.313,52.285L392.863,51.385L392.663,50.485L392.213,48.985L392.213,46.785L392.063,44.885L392.213,43.835L392.113,43.535L390.863,45.285L390.713,45.285L390.663,45.435L389.813,46.785L388.413,48.285L387.363,49.735L386.263,50.785C385.963,51.318 385.613,51.785 385.213,52.185L384.213,52.885L383.613,53.685L382.513,54.035L382.063,54.585L380.963,54.785L380.063,55.335L379.913,55.285L379.813,55.535L378.263,55.335L376.413,54.035C375.913,53.468 375.596,52.851 375.463,52.185C375.53,52.151 375.596,52.093 375.663,52.01C375.73,51.926 375.78,51.868 375.813,51.835C375.78,51.801 375.596,51.718 375.263,51.585L374.813,50.585L375.063,50.235L374.813,49.635L375.063,48.935L374.963,48.035L375.313,46.585L375.313,45.035L375.663,44.585L375.663,43.535L376.013,42.885L376.113,42.135L376.213,42.035L376.213,41.385L376.713,40.585L376.813,39.885L377.113,39.385L377.263,39.085L377.463,37.885L377.813,36.835L378.063,36.585L378.163,35.935L378.813,35.235C378.88,35.068 379.03,34.718 379.263,34.185L380.513,33.635L381.313,32.785L383.613,32.135C383.98,32.135 384.263,32.118 384.463,32.085L384.813,32.285L384.913,31.885L386.063,31.785L386.463,31.935L386.813,31.885L387.113,32.135L388.063,32.185L388.263,32.035L388.513,32.235L389.013,32.285L389.013,32.635L389.213,32.785L390.213,32.985L390.963,33.835L391.963,34.585L392.213,35.085L392.263,35.135L392.463,34.435L392.763,33.785L392.663,32.635L392.863,30.535L392.563,29.735L392.963,29.135L392.763,28.585L392.913,27.185L392.763,25.985L392.313,25.635L393.013,24.835L393.013,24.285C393.013,23.718 392.796,23.101 392.363,22.435L392.663,22.435L393.213,21.635C393.713,21.535 394.163,21.485 394.563,21.485C395.03,21.485 395.413,21.585 395.713,21.785C396.246,21.951 396.513,22.751 396.513,24.185L396.263,24.185L396.213,24.385L396.663,24.785L396.363,25.585L396.813,26.535L396.563,26.835C396.663,27.068 396.713,27.301 396.713,27.535C396.713,27.768 396.663,28.018 396.563,28.285L396.813,28.585C396.88,28.718 396.913,28.935 396.913,29.235C396.913,29.601 396.83,29.935 396.663,30.235C396.496,32.335 396.346,33.635 396.213,34.135C396.246,34.235 396.263,34.385 396.263,34.585C396.263,34.851 396.213,35.135 396.113,35.435L396.113,35.735C396.113,36.135 396.046,36.585 395.913,37.085L395.763,38.585L395.513,38.985L395.663,39.435L395.413,40.185L395.663,40.835L395.263,42.385L395.513,43.535L395.363,44.185L395.463,45.185C395.563,45.418 395.613,45.635 395.613,45.835C395.613,46.001 395.596,46.135 395.563,46.235L395.863,46.535L395.463,47.535L395.863,48.585L395.713,48.885L395.863,49.185L395.713,49.485L395.863,49.635L396.313,50.035L397.163,50.135L398.463,50.685ZM391.013,38.485L390.813,38.385C390.58,38.251 390.371,38.035 390.188,37.735C390.005,37.435 389.83,37.135 389.663,36.835C389.33,36.735 389.046,36.518 388.813,36.185L388.513,36.185L387.613,35.635L386.463,35.385L385.363,35.535L384.213,35.835L383.863,35.535L383.463,35.685L383.463,35.885L383.013,35.985C382.713,36.518 382.246,36.985 381.613,37.385L381.213,38.235L380.813,38.535L380.463,39.335L380.313,40.985L379.863,41.385L379.863,42.285L379.363,42.635L379.463,43.835L378.613,45.485L378.463,46.285L378.363,47.585L378.663,48.135L378.313,48.685L378.613,49.035L378.113,49.935L378.363,50.385L378.563,50.985L378.863,51.185L379.213,51.185L379.663,50.785L380.063,50.835L380.913,50.485L381.013,50.185L381.963,49.835L382.063,49.535L382.663,49.185L382.663,49.085L383.913,47.785L384.513,47.535L384.813,46.885L385.463,46.785L386.263,45.885L386.113,45.785L386.463,45.435L386.963,44.385L387.413,43.935L387.663,42.835L388.463,42.585L389.013,41.785L389.213,41.635L389.213,40.735L389.963,40.385L391.013,38.485Z" style="fill-rule:nonzero;"/>
        <path d="M417.613,56.935L415.913,59.135C414.913,59.135 414.196,59.168 413.763,59.235L413.763,59.085L413.063,59.535L412.013,59.385L411.913,59.135L411.813,59.135L410.813,59.285L410.563,59.235L410.413,59.285C410.346,59.285 410.263,59.285 410.163,59.285C410.03,59.251 409.946,59.235 409.913,59.235C409.346,59.235 408.863,59.401 408.463,59.735L407.863,59.585L407.113,60.135L406.513,59.885C405.846,59.951 405.463,59.985 405.363,59.985L404.063,60.235L402.963,59.285C402.996,59.218 403.013,59.101 403.013,58.935C403.013,58.601 402.68,58.051 402.013,57.285L404.313,56.935L404.963,56.435L405.863,56.535C406.23,56.268 406.763,56.135 407.463,56.135C407.93,56.135 408.296,56.168 408.563,56.235L408.663,56.235C408.796,56.235 408.896,56.218 408.963,56.185C409.296,56.118 409.546,56.085 409.713,56.085C409.846,56.085 410.08,56.118 410.413,56.185L410.813,55.985L410.813,55.735L410.413,54.835L410.263,54.035C410.13,53.801 410.063,53.535 410.063,53.235C410.063,53.035 410.08,52.885 410.113,52.785L410.013,50.985L409.813,49.685L410.013,48.935L409.813,47.535L410.013,46.935L409.813,45.585L410.063,44.985L409.813,44.085L410.063,43.885C410.096,43.185 410.18,42.451 410.313,41.685L410.263,40.685C410.096,40.518 409.996,40.435 409.963,40.435C409.963,40.435 409.946,40.451 409.913,40.485C409.946,40.385 409.988,40.235 410.038,40.035C410.088,39.835 410.13,39.685 410.163,39.585L410.163,39.185L410.313,39.135L410.413,38.935C410.546,38.535 410.613,38.051 410.613,37.485L410.413,35.985C410.613,35.585 410.713,35.301 410.713,35.135C410.713,35.068 410.713,34.985 410.713,34.885C410.68,34.751 410.663,34.668 410.663,34.635C410.663,34.601 410.705,34.46 410.788,34.21C410.871,33.96 410.913,33.701 410.913,33.435L410.913,31.785L411.063,30.985L411.063,29.785L410.813,28.835L410.813,27.185C410.813,26.751 410.98,26.335 411.313,25.935L410.213,26.185L408.813,26.285L407.513,26.785L406.963,26.585L406.163,26.685L405.013,27.385L404.563,26.685L403.763,26.635C403.396,26.868 403.063,26.985 402.763,26.985C402.696,26.985 402.363,26.918 401.763,26.785C400.963,26.318 400.53,25.835 400.463,25.335L399.763,24.635C400.363,23.835 401.263,23.385 402.463,23.285C403.03,23.351 403.663,23.501 404.363,23.735L405.213,23.535L405.613,23.635C406.013,23.501 406.363,23.435 406.663,23.435C406.796,23.435 407.03,23.468 407.363,23.535C407.663,23.435 408.013,23.385 408.413,23.385L409.463,23.385C409.53,23.351 409.621,23.318 409.738,23.285C409.855,23.251 409.93,23.235 409.963,23.235L410.613,23.185L411.013,23.035L411.863,21.685L413.813,22.435L414.113,22.585C414.88,22.351 415.463,22.235 415.863,22.235C416.73,22.235 417.163,22.735 417.163,23.735C417.163,23.935 417.146,24.085 417.113,24.185L415.613,24.935L415.663,25.885C415.363,26.118 415.213,26.418 415.213,26.785C415.213,26.918 415.246,27.118 415.313,27.385L415.163,27.235L415.413,28.285L415.013,28.935L415.163,29.785L415.013,30.085L415.513,30.385L414.713,31.935L414.863,32.785L414.563,33.485L414.563,34.285L414.413,34.685L414.563,35.535L414.463,36.035L414.563,36.985C414.33,37.918 414.213,38.701 414.213,39.335C413.946,39.535 413.813,39.751 413.813,39.985C413.813,40.118 413.88,40.293 414.013,40.51C414.146,40.726 414.213,40.935 414.213,41.135C414.213,41.468 414.13,41.901 413.963,42.435C413.763,43.068 413.646,43.451 413.613,43.585L413.213,45.835L413.613,46.885L413.313,48.835L413.513,50.085L413.513,50.985L413.213,51.235L413.663,52.635L413.163,53.035C413.263,53.335 413.338,53.501 413.388,53.535C413.438,53.568 413.48,53.718 413.513,53.985L413.513,55.535C413.513,55.768 413.463,55.985 413.363,56.185L413.613,56.035L413.613,56.135L413.763,56.085L417.613,56.935Z" style="fill-rule:nonzero;"/>
    </g>
</svg>
