<?xml version="1.0" encoding="UTF-8" standalone="no"?>
<!DOCTYPE svg PUBLIC "-//W3C//DTD SVG 1.1//EN" "http://www.w3.org/Graphics/SVG/1.1/DTD/svg11.dtd">
<svg width="100%" height="100%" viewBox="0 0 700 700" version="1.1" xmlns="http://www.w3.org/2000/svg" xmlns:xlink="http://www.w3.org/1999/xlink" xml:space="preserve" xmlns:serif="http://www.serif.com/" style="fill-rule:evenodd;clip-rule:evenodd;stroke-linejoin:round;stroke-miterlimit:1.41421;">
    <g transform="matrix(0.597386,0,0,0.597386,242.204,240.508)">
        <g id="path3684" transform="matrix(28.931,0,0,28.931,-15587.1,906.236)">
            <path d="M545.031,-44.359C544.838,-44.359 544.637,-44.249 544.536,-44.084L543.545,-42.433C543.387,-42.421 543.207,-42.451 543.05,-42.433L541.785,-43.809C541.652,-43.95 541.424,-44.011 541.234,-43.974C541.044,-43.936 540.917,-43.826 540.849,-43.644L540.134,-41.828C539.979,-41.784 539.846,-41.766 539.693,-41.718L538.153,-42.818C537.995,-42.932 537.781,-42.948 537.602,-42.873C537.424,-42.8 537.303,-42.624 537.272,-42.433L536.942,-40.562C536.8,-40.489 536.697,-40.419 536.557,-40.342L534.796,-41.113C534.619,-41.193 534.406,-41.165 534.245,-41.058C534.084,-40.95 534.018,-40.811 534.025,-40.617L534.08,-38.691C533.957,-38.592 533.816,-38.463 533.695,-38.361L531.879,-38.801C531.69,-38.845 531.465,-38.828 531.329,-38.691C531.191,-38.554 531.119,-38.33 531.164,-38.141L531.604,-36.27C531.502,-36.149 531.427,-36.063 531.329,-35.94L529.403,-35.995C529.21,-36 529.015,-35.881 528.907,-35.72C528.8,-35.559 528.827,-35.401 528.907,-35.224L529.678,-33.463C529.601,-33.324 529.531,-33.166 529.458,-33.023L527.587,-32.748C527.396,-32.717 527.221,-32.597 527.146,-32.418C527.072,-32.238 527.089,-32.025 527.201,-31.867L528.302,-30.327C528.254,-30.174 528.236,-29.986 528.192,-29.831L526.376,-29.171C526.195,-29.103 526.084,-28.976 526.046,-28.786C526.008,-28.596 526.069,-28.368 526.211,-28.235L527.587,-26.97C527.569,-26.813 527.545,-26.632 527.532,-26.475L525.936,-25.484C525.771,-25.382 525.661,-25.183 525.661,-24.989C525.661,-24.795 525.771,-24.595 525.936,-24.493L527.532,-23.503C527.546,-23.345 527.569,-23.22 527.587,-23.063L526.211,-21.742C526.069,-21.61 526.008,-21.381 526.046,-21.192C526.083,-21.001 526.195,-20.874 526.376,-20.806L528.192,-20.146C528.236,-19.991 528.254,-19.804 528.302,-19.651L527.201,-18.11C527.088,-17.952 527.072,-17.738 527.146,-17.56C527.221,-17.38 527.396,-17.26 527.587,-17.229L529.458,-16.954C529.531,-16.811 529.6,-16.654 529.678,-16.514L528.907,-14.808C528.827,-14.632 528.8,-14.419 528.907,-14.258C529.015,-14.096 529.21,-13.975 529.403,-13.983L531.329,-14.038C531.428,-13.913 531.502,-13.828 531.604,-13.708L531.164,-11.837C531.119,-11.648 531.192,-11.423 531.329,-11.286C531.465,-11.148 531.69,-11.132 531.879,-11.176L533.695,-11.616C533.816,-11.514 533.957,-11.385 534.08,-11.286L534.025,-9.36C534.017,-9.167 534.084,-9.028 534.245,-8.92C534.406,-8.812 534.619,-8.784 534.796,-8.865L536.557,-9.635C536.696,-9.558 536.799,-9.489 536.942,-9.415L537.272,-7.544C537.303,-7.353 537.423,-7.178 537.602,-7.104C537.781,-7.03 537.995,-7.046 538.153,-7.159L539.693,-8.315C539.846,-8.266 539.979,-8.194 540.134,-8.149L540.849,-6.389C540.917,-6.207 541.044,-6.04 541.234,-6.003C541.424,-5.965 541.652,-6.026 541.785,-6.168L543.05,-7.599C543.207,-7.581 543.387,-7.558 543.545,-7.544L544.536,-5.893C544.637,-5.729 544.838,-5.618 545.031,-5.618C545.225,-5.618 545.37,-5.729 545.472,-5.893L546.517,-7.544C546.675,-7.558 546.8,-7.581 546.957,-7.599L548.278,-6.168C548.41,-6.026 548.584,-5.965 548.773,-6.003C548.964,-6.041 549.146,-6.207 549.214,-6.389L549.874,-8.149C550.029,-8.194 550.161,-8.266 550.314,-8.315L551.855,-7.159C552.012,-7.046 552.227,-7.03 552.405,-7.104C552.584,-7.178 552.704,-7.353 552.736,-7.544L553.066,-9.415C553.208,-9.489 553.366,-9.559 553.506,-9.635L555.212,-8.865C555.388,-8.784 555.601,-8.812 555.762,-8.92C555.923,-9.028 556.044,-9.166 556.037,-9.36L555.927,-11.286C556.051,-11.385 556.192,-11.514 556.313,-11.616L558.184,-11.176C558.372,-11.132 558.542,-11.148 558.679,-11.286C558.816,-11.423 558.888,-11.648 558.844,-11.837L558.404,-13.708C558.506,-13.829 558.635,-13.913 558.734,-14.038L560.605,-13.983C560.797,-13.976 560.992,-14.096 561.1,-14.258C561.208,-14.419 561.236,-14.632 561.155,-14.808L560.384,-16.514C560.462,-16.654 560.531,-16.812 560.605,-16.954L562.476,-17.229C562.667,-17.26 562.842,-17.38 562.916,-17.56C562.99,-17.738 562.92,-17.952 562.806,-18.11L561.705,-19.651C561.753,-19.803 561.826,-19.992 561.87,-20.146L563.631,-20.806C563.813,-20.874 563.979,-21.001 564.016,-21.192C564.055,-21.382 563.993,-21.61 563.851,-21.742L562.421,-23.063C562.438,-23.22 562.462,-23.345 562.476,-23.503L564.126,-24.493C564.291,-24.595 564.347,-24.795 564.347,-24.989C564.347,-25.183 564.291,-25.382 564.126,-25.484L562.476,-26.475C562.461,-26.633 562.438,-26.813 562.421,-26.97L563.851,-28.236C563.993,-28.368 564.055,-28.596 564.016,-28.786C563.979,-28.976 563.813,-29.103 563.631,-29.171L561.87,-29.831C561.826,-29.986 561.753,-30.174 561.705,-30.327L562.806,-31.867C562.919,-32.025 562.99,-32.238 562.916,-32.418C562.842,-32.596 562.667,-32.717 562.476,-32.748L560.605,-33.023C560.531,-33.166 560.461,-33.324 560.385,-33.463L561.155,-35.224C561.236,-35.401 561.208,-35.559 561.1,-35.72C560.992,-35.881 560.799,-36.002 560.605,-35.995L558.734,-35.94C558.635,-36.063 558.506,-36.15 558.404,-36.27L558.844,-38.141C558.888,-38.33 558.815,-38.554 558.679,-38.691C558.542,-38.828 558.373,-38.846 558.184,-38.801L556.313,-38.361C556.192,-38.463 556.051,-38.592 555.927,-38.691L556.037,-40.617C556.045,-40.811 555.923,-40.95 555.762,-41.058C555.601,-41.165 555.388,-41.193 555.212,-41.113L553.506,-40.342C553.366,-40.419 553.208,-40.489 553.066,-40.562L552.736,-42.433C552.704,-42.624 552.584,-42.8 552.405,-42.874C552.227,-42.948 552.012,-42.932 551.855,-42.819L550.314,-41.718C550.162,-41.766 550.029,-41.784 549.874,-41.828L549.214,-43.644C549.146,-43.826 548.964,-43.936 548.773,-43.974C548.583,-44.011 548.41,-43.95 548.278,-43.809L546.957,-42.433C546.8,-42.451 546.675,-42.42 546.517,-42.433L545.472,-44.084C545.37,-44.249 545.225,-44.359 545.031,-44.359L545.031,-44.359ZM544.976,-40.947C545.27,-40.941 545.582,-40.792 545.802,-40.562C546.24,-40.102 546.206,-39.35 545.747,-38.911C545.288,-38.472 544.59,-38.506 544.151,-38.966C543.713,-39.426 543.692,-40.178 544.151,-40.617C544.38,-40.837 544.682,-40.954 544.977,-40.947L544.976,-40.947ZM531.219,-30.492C531.667,-30.499 532.126,-30.267 532.319,-29.831C532.577,-29.25 532.294,-28.548 531.714,-28.291C531.134,-28.033 530.431,-28.315 530.173,-28.896C529.916,-29.477 530.199,-30.179 530.779,-30.437C530.924,-30.501 531.07,-30.489 531.219,-30.492L531.219,-30.492ZM558.679,-30.437C558.828,-30.434 558.974,-30.446 559.119,-30.382C559.699,-30.124 559.982,-29.422 559.724,-28.841C559.467,-28.259 558.764,-27.978 558.184,-28.235C557.604,-28.493 557.376,-29.195 557.633,-29.776C557.826,-30.212 558.231,-30.444 558.679,-30.437L558.679,-30.437ZM536.227,-14.313C536.847,-14.446 537.414,-14.054 537.547,-13.432C537.68,-12.811 537.287,-12.19 536.667,-12.057C536.046,-11.923 535.425,-12.315 535.291,-12.937C535.158,-13.56 535.606,-14.179 536.227,-14.313ZM553.231,-14.258C553.377,-14.286 553.571,-14.291 553.726,-14.258C554.347,-14.125 554.74,-13.503 554.607,-12.882C554.474,-12.261 553.851,-11.869 553.231,-12.002C552.61,-12.135 552.217,-12.755 552.35,-13.377C552.45,-13.844 552.791,-14.174 553.231,-14.258L553.231,-14.258Z" style="fill:rgb(133,133,210);fill-rule:nonzero;stroke:black;stroke-width:0.23px;"/>
        </g>
        <g transform="matrix(2.99979,0,0,3.03293,-373.697,-368.749)">
            <ellipse cx="184.727" cy="182.014" rx="119.165" ry="117.863" style="fill:white;stroke:black;stroke-width:2.22px;stroke-linecap:round;stroke-miterlimit:1.5;"/>
        </g>
        <g id="Layer_2_21_" transform="matrix(1.2461,0,0,1.2461,-69.889,-67.0489)">
            <path d="M368.566,329.739C328.189,270.718 251.138,168.893 245.961,160.927L245.961,37.255C244.545,37.584 243.077,37.776 241.562,37.776L160.226,37.776C158.714,37.776 157.249,37.586 155.836,37.258L155.836,160.928C150.659,168.894 74.367,269.668 33.231,329.74C3.187,373.612 33.244,403.048 68.693,401.746L333.104,401.746C368.554,403.047 398.59,373.625 368.566,329.739ZM306.942,383.629L201.061,383.629L95.179,383.629C66.788,384.672 42.716,361.097 66.778,325.961C81.432,304.562 101.654,276.716 119.959,251.827L282.158,251.827C300.581,276.874 320.894,304.838 335.344,325.961C359.389,361.109 335.334,384.672 306.942,383.629Z" style="fill:rgb(183,229,146);fill-rule:nonzero;stroke:black;stroke-width:4.03px;"/>
            <path d="M282.157,251.827L119.959,251.827C101.654,276.716 81.432,304.561 66.778,325.961C42.716,361.097 66.788,384.672 95.179,383.629L306.942,383.629C335.334,384.672 359.389,361.108 335.343,325.961C320.893,304.838 300.58,276.874 282.157,251.827Z" style="fill:white;fill-rule:nonzero;stroke:black;stroke-width:4.03px;"/>
            <path d="M241.562,38.776C243.078,38.776 244.546,38.585 245.961,38.255C254.545,36.26 260.949,28.58 260.949,19.389C260.949,8.68 252.269,0 241.562,0L160.226,0C149.518,0 140.839,8.68 140.839,19.389C140.839,28.584 147.247,36.266 155.837,38.258C157.25,38.585 158.714,38.776 160.227,38.776L241.562,38.776Z" style="fill:rgb(183,229,146);fill-rule:nonzero;stroke:black;stroke-width:4.03px;"/>
        </g>
    </g>
</svg>
