<?xml version="1.0" encoding="UTF-8" standalone="no"?>
<!DOCTYPE svg PUBLIC "-//W3C//DTD SVG 1.1//EN" "http://www.w3.org/Graphics/SVG/1.1/DTD/svg11.dtd">
<svg width="100%" height="100%" viewBox="0 0 2202 780" version="1.1" xmlns="http://www.w3.org/2000/svg" xmlns:xlink="http://www.w3.org/1999/xlink" xml:space="preserve" xmlns:serif="http://www.serif.com/" style="fill-rule:evenodd;clip-rule:evenodd;stroke-linecap:round;stroke-linejoin:round;stroke-miterlimit:1.5;">
    <g transform="matrix(1,0,0,1,-32,-998)">
        <g transform="matrix(1.18206,0,0,1,797.239,-33.8862)">
            <rect x="832" y="1416.2" width="350" height="109.799" style="fill:rgb(249,239,168);stroke:rgb(242,216,134);stroke-width:3.81px;"/>
        </g>
        <g transform="matrix(1,0,0,1,-245.307,-34.562)">
            <text x="2079.54px" y="1485.01px" style="font-family:'ArialMT', 'Arial', sans-serif;font-size:50px;">ComplexField</text>
        </g>
        <g transform="matrix(1,-0,-0,1,32,998)">
            <path d="M1943.15,173.948L1955.57,148.91L1968.15,173.871C1961.88,167.641 1949.38,167.679 1943.15,173.948Z" style="fill:rgb(180,176,176);"/>
            <path d="M1956.29,384.01C1956.29,384.01 1955.81,225.725 1955.63,168.91" style="fill:none;stroke:rgb(180,176,176);stroke-width:8.33px;"/>
        </g>
        <g transform="matrix(1,0,0,1,-1.06914,-49.6138)">
            <g transform="matrix(1,-0,-0,1,33.0691,1047.61)">
                <path d="M1942,524.094L1954.5,499.094L1967,524.094C1960.75,517.844 1948.25,517.844 1942,524.094Z" style="fill:rgb(180,176,176);"/>
                <path d="M1954.5,629.311L1954.5,519.094" style="fill:none;stroke:rgb(180,176,176);stroke-width:8.33px;"/>
            </g>
        </g>
        <g transform="matrix(1,0,0,1,-213.791,215.48)">
            <rect x="832" y="1416.2" width="350" height="109.799" style="fill:rgb(88,235,181);stroke:rgb(88,235,228);stroke-width:4.17px;"/>
        </g>
        <g transform="matrix(1,0,0,1,-167.367,200.997)">
            <text x="798.698px" y="1503.48px" style="font-family:'ArialMT', 'Arial', sans-serif;font-size:50px;">SimdRealField</text>
        </g>
        <g transform="matrix(1.36,0,0,1,-124.797,-28.9057)">
            <rect x="832" y="1416.2" width="350" height="109.799" style="fill:rgb(88,235,181);stroke:rgb(88,235,228);stroke-width:3.49px;"/>
        </g>
        <g transform="matrix(1,0,0,1,222.337,131.584)">
            <text x="815.39px" y="1323.84px" style="font-family:'ArialMT', 'Arial', sans-serif;font-size:50px;">SimdComplexField</text>
        </g>
        <g transform="matrix(0.594936,0,0,1,1388.47,-379.32)">
            <rect x="832" y="1416.2" width="350" height="109.799" style="fill:rgb(249,239,168);stroke:rgb(242,216,134);stroke-width:5.06px;"/>
        </g>
        <g transform="matrix(1.36,0,0,1,-1063.58,-38.5615)">
            <rect x="832" y="1416.2" width="350" height="109.799" style="fill:rgb(88,235,181);stroke:rgb(88,235,228);stroke-width:3.49px;"/>
        </g>
        <g transform="matrix(1,0,0,1,-240.083,-378.71)">
            <rect x="832" y="1416.2" width="350" height="109.799" style="fill:rgb(88,235,181);stroke:rgb(88,235,228);stroke-width:4.17px;"/>
        </g>
        <g transform="matrix(1,0,0,1,-231.669,-33.8862)">
            <rect x="832" y="1416.2" width="350" height="109.799" style="fill:rgb(88,235,181);stroke:rgb(88,235,228);stroke-width:4.17px;"/>
        </g>
        <g transform="matrix(1,0,0,1,-157.826,-53.3252)">
            <text x="798.698px" y="1503.48px" style="font-family:'ArialMT', 'Arial', sans-serif;font-size:50px;">SimdSigned</text>
        </g>
        <g transform="matrix(1,0,0,1,928.734,63.2667)">
            <text x="1005.48px" y="1046.12px" style="font-family:'ArialMT', 'Arial', sans-serif;font-size:50px;">Field</text>
        </g>
        <g transform="matrix(1,0,0,1,-157.704,254.035)">
            <text x="805.493px" y="856.252px" style="font-family:'ArialMT', 'Arial', sans-serif;font-size:50px;">SimdV<tspan x="949.048px 976.855px " y="856.252px 856.252px ">al</tspan>ue</text>
        </g>
        <g transform="matrix(1,0,0,1,-167.438,331.37)">
            <text x="304.567px" y="1119.08px" style="font-family:'ArialMT', 'Arial', sans-serif;font-size:50px;">SimdPartialOrd</text>
        </g>
        <g transform="matrix(0.912179,0,0,1,1067.94,187.318)">
            <rect x="832" y="1416.2" width="350" height="109.799" style="fill:rgb(249,239,168);stroke:rgb(242,216,134);stroke-width:4.35px;"/>
        </g>
        <g transform="matrix(1,0,0,1,-199.148,191.013)">
            <text x="2079.54px" y="1485.01px" style="font-family:'ArialMT', 'Arial', sans-serif;font-size:50px;">RealField</text>
        </g>
        <g transform="matrix(1,-0,-0,1,32,998)">
            <path d="M1897.96,145.707L1925.64,149.595L1905.92,169.405C1909.86,161.49 1905.88,149.641 1897.96,145.707Z" style="fill:rgb(180,176,176);"/>
            <path d="M1212.07,389.295C1212.07,389.295 1793.51,193.979 1906.68,155.964" style="fill:none;stroke:rgb(180,176,176);stroke-width:8.33px;"/>
        </g>
        <g transform="matrix(1,-0,-0,1,32,998)">
            <path d="M740.44,173.68L754.091,149.29L765.413,174.845C759.461,168.311 746.974,167.728 740.44,173.68Z" style="fill:rgb(180,176,176);"/>
            <path d="M743.331,379.945C743.331,379.945 750.545,225.312 753.159,169.268" style="fill:none;stroke:rgb(180,176,176);stroke-width:8.33px;"/>
        </g>
        <g transform="matrix(1,-0,-0,1,32,998)">
            <path d="M660.582,150.506L688.506,149.29L672.724,172.359C675.152,163.86 669.081,152.934 660.582,150.506Z" style="fill:rgb(180,176,176);"/>
            <path d="M273.94,379.64C273.94,379.64 592.229,202.786 671.024,159.004" style="fill:none;stroke:rgb(180,176,176);stroke-width:8.33px;"/>
        </g>
        <g transform="matrix(1,-0,-0,1,32,998)">
            <path d="M1475.54,447.404L1450.72,434.539L1475.9,422.407C1469.56,428.565 1469.38,441.063 1475.54,447.404Z" style="fill:rgb(180,176,176);"/>
            <path d="M1748.71,438.909C1748.71,438.909 1537.52,435.812 1470.72,434.832" style="fill:none;stroke:rgb(180,176,176);stroke-width:8.33px;stroke-linejoin:miter;stroke-miterlimit:3;stroke-dasharray:8.33,16.67,8.33,16.67;"/>
        </g>
        <g transform="matrix(1.17344,0,0,1.17344,-262.685,-9.25376)">
            <g transform="matrix(0.852196,-0,-0,0.852196,251.13,858.377)">
                <path d="M961.349,700.797L936.209,688.581L961.066,675.799C954.887,682.119 955.028,694.618 961.349,700.797Z" style="fill:rgb(180,176,176);"/>
                <path d="M1794.87,678.872C1794.87,678.872 1085.23,686.896 956.208,688.354" style="fill:none;stroke:rgb(180,176,176);stroke-width:8.33px;stroke-linejoin:miter;stroke-miterlimit:3;stroke-dasharray:8.33,16.67,8.33,16.67;"/>
            </g>
        </g>
        <g transform="matrix(1,-0,-0,1,32,998)">
            <path d="M824.017,173.116L808.916,149.595L836.793,151.627C828.227,153.805 821.839,164.55 824.017,173.116Z" style="fill:rgb(180,176,176);"/>
            <path d="M1212.07,389.295C1212.07,389.295 903.052,205.565 826.107,159.816" style="fill:none;stroke:rgb(180,176,176);stroke-width:8.33px;"/>
        </g>
        <g transform="matrix(1,-0,-0,1,32,998)">
            <path d="M748.709,519.114L761.209,494.114L773.709,519.114C767.459,512.864 754.959,512.864 748.709,519.114Z" style="fill:rgb(180,176,176);"/>
            <path d="M761.209,632.589L761.209,514.114" style="fill:none;stroke:rgb(180,176,176);stroke-width:8.33px;stroke-linejoin:miter;stroke-miterlimit:3;"/>
        </g>
        <g transform="matrix(1,-0,-0,1,32,998)">
            <path d="M275.617,508.311L255,489.438L282.468,484.268C274.745,488.566 271.319,500.587 275.617,508.311Z" style="fill:rgb(180,176,176);"/>
            <path d="M761.209,633.681C761.209,633.681 366.715,521.271 274.234,494.919" style="fill:none;stroke:rgb(180,176,176);stroke-width:8.33px;stroke-linejoin:miter;stroke-miterlimit:3;"/>
        </g>
        <g transform="matrix(1,0,0,1,348.561,5.28564)">
            <g transform="matrix(1,-0,-0,1,-316.561,992.714)">
                <path d="M1184.54,494.538L1212.07,499.399L1191.66,518.503C1195.87,510.731 1192.31,498.749 1184.54,494.538Z" style="fill:rgb(180,176,176);"/>
                <path d="M761.209,633.376C761.209,633.376 1106.93,530.64 1192.89,505.096" style="fill:none;stroke:rgb(180,176,176);stroke-width:8.33px;"/>
            </g>
        </g>
    </g>
</svg>
